<svg width="20" height="20" viewBox="0 0 20 20" fill="none" xmlns="http://www.w3.org/2000/svg">
<path d="M2 6C2 4.89543 2.89543 4 4 4H14C16.2091 4 18 5.79086 18 8V14C18 15.1046 17.1046 16 16 16H6C3.79086 16 2 14.2091 2 12V6Z" fill="url(#paint0_linear_95_21540)"/>
<path d="M3 6C3 5.44772 3.44772 5 4 5H14C15.6569 5 17 6.34315 17 8V14C17 14.5523 16.5523 15 16 15H6C4.34315 15 3 13.6569 3 12V6Z" fill="url(#paint1_linear_95_21540)"/>
<path d="M3 6C3 5.44772 3.44772 5 4 5H14C15.6569 5 17 6.34315 17 8V14C17 14.5523 16.5523 15 16 15H6C4.34315 15 3 13.6569 3 12V6Z" fill="url(#paint2_radial_95_21540)"/>
<path d="M10 6C12.209 6 13.9998 7.79083 14 10C14 11.864 12.7253 13.4309 11 13.875V11.5C11 10.1193 9.88071 9 8.5 9H6.12598C6.5701 7.27474 8.13625 6 10 6Z" fill="url(#paint3_linear_95_21540)"/>
<path d="M10 6C12.209 6 13.9998 7.79083 14 10C14 11.864 12.7253 13.4309 11 13.875V11.5C11 10.1193 9.88071 9 8.5 9H6.12598C6.5701 7.27474 8.13625 6 10 6Z" fill="url(#paint4_radial_95_21540)"/>
<path d="M10 6C12.209 6 13.9998 7.79083 14 10C14 11.864 12.7253 13.4309 11 13.875V11.5C11 10.1193 9.88071 9 8.5 9H6.12598C6.5701 7.27474 8.13625 6 10 6Z" fill="url(#paint5_radial_95_21540)" fill-opacity="0.5"/>
<path d="M10 6C12.2088 6.00021 13.9998 7.79096 14 10C14 10.7325 13.8007 11.4183 13.457 12.0088L13.5205 11.8701C13.9163 10.9916 13.2741 9.9972 12.3105 9.99707H10.7129C10.6221 9.99707 10.536 9.97807 10.4561 9.94727C10.3354 9.79548 10.1981 9.6582 10.0459 9.53809C10.0149 9.45788 9.99602 9.37142 9.99609 9.28027L9.99805 7.69043C9.99882 6.72557 9.00225 6.08201 8.12305 6.47949L8.00391 6.53418C8.59143 6.19511 9.27293 6 10 6Z" fill="url(#paint6_radial_95_21540)"/>
<path d="M10 6C12.2088 6.00021 13.9998 7.79096 14 10C14 10.7325 13.8007 11.4183 13.457 12.0088L13.5205 11.8701C13.9163 10.9916 13.2741 9.9972 12.3105 9.99707H10.7129C10.6221 9.99707 10.536 9.97807 10.4561 9.94727C10.3354 9.79548 10.1981 9.6582 10.0459 9.53809C10.0149 9.45788 9.99602 9.37142 9.99609 9.28027L9.99805 7.69043C9.99882 6.72557 9.00225 6.08201 8.12305 6.47949L8.00391 6.53418C8.59143 6.19511 9.27293 6 10 6Z" fill="url(#paint7_radial_95_21540)"/>
<rect x="1" y="10" width="9" height="9" rx="2" fill="url(#paint8_radial_95_21540)"/>
<rect x="1" y="10" width="9" height="9" rx="2" fill="url(#paint9_radial_95_21540)" fill-opacity="0.3"/>
<path d="M4.79856 15.3717V17H3.6709V12H5.41301C6.03677 12 6.51158 12.136 6.83743 12.4079C7.1656 12.6799 7.32969 13.0832 7.32969 13.6179C7.32969 14.1688 7.14582 14.5988 6.77808 14.9079C6.41266 15.2171 5.92157 15.3717 5.30478 15.3717H4.79856ZM4.79856 12.8647V14.507H5.26987C5.54917 14.507 5.76446 14.4338 5.91575 14.2873C6.06703 14.1409 6.14268 13.9305 6.14268 13.6562C6.14268 13.4028 6.0682 13.2076 5.91924 13.0704C5.77261 12.9333 5.56197 12.8647 5.28733 12.8647H4.79856Z" fill="white"/>
<defs>
<linearGradient id="paint0_linear_95_21540" x1="7.16667" y1="4" x2="8.38779" y2="16.2112" gradientUnits="userSpaceOnUse">
<stop stop-color="#BBBBBB"/>
<stop offset="1" stop-color="#888888"/>
</linearGradient>
<linearGradient id="paint1_linear_95_21540" x1="6.88889" y1="5" x2="7.79929" y2="15.1965" gradientUnits="userSpaceOnUse">
<stop stop-color="white"/>
<stop offset="1" stop-color="#EBEBEB"/>
</linearGradient>
<radialGradient id="paint2_radial_95_21540" cx="0" cy="0" r="1" gradientTransform="matrix(7.38889 7.91667 -11.0833 2.96875 7.47222 7.60417)" gradientUnits="userSpaceOnUse">
<stop offset="0.177083" stop-color="white"/>
<stop offset="1" stop-color="#EFEFEF"/>
</radialGradient>
<linearGradient id="paint3_linear_95_21540" x1="8.69534" y1="5.74124" x2="3.7498" y2="11.3479" gradientUnits="userSpaceOnUse">
<stop offset="0.0582736" stop-color="#FF7F48"/>
<stop offset="1" stop-color="#E5495B"/>
</linearGradient>
<radialGradient id="paint4_radial_95_21540" cx="0" cy="0" r="1" gradientTransform="matrix(-6.83785 5.77014 -11.509 -9.71191 11.0877 8.35856)" gradientUnits="userSpaceOnUse">
<stop offset="0.151523" stop-color="#AA1D2D"/>
<stop offset="0.380855" stop-color="#D12B18" stop-opacity="0.44"/>
<stop offset="0.601996" stop-color="#FF3C00" stop-opacity="0"/>
</radialGradient>
<radialGradient id="paint5_radial_95_21540" cx="0" cy="0" r="1" gradientTransform="matrix(8.28873 -3.30376 7.09277 12.6715 2.687 13.3681)" gradientUnits="userSpaceOnUse">
<stop offset="0.4067" stop-color="#FF66FB"/>
<stop offset="1" stop-color="#EA3D01" stop-opacity="0"/>
</radialGradient>
<radialGradient id="paint6_radial_95_21540" cx="0" cy="0" r="1" gradientTransform="matrix(3.65362 -4.18262 3.89947 3.24575 9.55746 10.546)" gradientUnits="userSpaceOnUse">
<stop stop-color="#FD6EF9"/>
<stop offset="0.637205" stop-color="#FF9944"/>
<stop offset="0.85186" stop-color="#FCC479"/>
</radialGradient>
<radialGradient id="paint7_radial_95_21540" cx="0" cy="0" r="1" gradientTransform="matrix(-0.4127 2.79632 -6.3265 -0.889707 9.19397 6.52809)" gradientUnits="userSpaceOnUse">
<stop offset="0.144283" stop-color="#FF8D13"/>
<stop offset="0.537266" stop-color="#FF7F29" stop-opacity="0"/>
</radialGradient>
<radialGradient id="paint8_radial_95_21540" cx="0" cy="0" r="1" gradientUnits="userSpaceOnUse" gradientTransform="translate(0.998901 10) rotate(45) scale(12.7279)">
<stop stop-color="#F8193E"/>
<stop offset="0.939062" stop-color="#920616"/>
</radialGradient>
<radialGradient id="paint9_radial_95_21540" cx="0" cy="0" r="1" gradientUnits="userSpaceOnUse" gradientTransform="translate(5.4989 15.4) rotate(90) scale(6.3 7.17188)">
<stop offset="0.575893" stop-color="#FFB055" stop-opacity="0"/>
<stop offset="0.973806" stop-color="#FFF2BE"/>
</radialGradient>
</defs>
</svg>
