<svg width="20" height="20" viewBox="0 0 20 20" fill="none" xmlns="http://www.w3.org/2000/svg">
<path fill-rule="evenodd" clip-rule="evenodd" d="M10 1.25C5.275 1.25 1.25 5.1 1.25 9.9125C1.25 12.45 2.29999 14.725 3.96249 16.3875C4.57499 17 5.5375 17 6.2375 16.475C7.2 15.6875 8.5125 15.25 10 15.25C11.4875 15.25 12.7125 15.6875 13.7625 16.475C14.4625 17 15.425 16.9125 16.0375 16.3C17.7 14.725 18.75 12.45 18.75 9.9125C18.6625 5.1875 14.8125 1.25 10 1.25V1.25ZM9.91249 14.375C7.37499 14.375 5.53749 12.45 5.53749 10C5.53749 7.55 7.28749 5.625 9.91249 5.625C12.5375 5.625 14.2875 7.6375 14.2875 10C14.2875 12.3625 12.5375 14.375 9.91249 14.375Z" fill="#82B6A1"/>
</svg>
